<svg xmlns="http://www.w3.org/2000/svg" xmlns:xlink="http://www.w3.org/1999/xlink" width="1920" zoomAndPan="magnify" viewBox="0 0 1440 1439.999935" height="1920" preserveAspectRatio="xMidYMid meet" version="1.0"><path fill="#fee077" d="M 1339.898438 748.46875 C 1339.898438 1095.792969 1058.339844 1377.351562 711.019531 1377.351562 C 363.695312 1377.351562 82.136719 1095.792969 82.136719 748.46875 C 82.136719 401.148438 363.691406 119.589844 711.015625 119.589844 C 1058.339844 119.585938 1339.898438 401.148438 1339.898438 748.46875 Z M 1339.898438 748.46875 " fill-opacity="1" fill-rule="nonzero"/><path fill="#211f17" d="M 571.761719 602.117188 C 571.761719 653.117188 530.417969 694.457031 479.421875 694.457031 C 428.421875 694.457031 387.078125 653.117188 387.078125 602.117188 C 387.078125 551.117188 428.421875 509.777344 479.421875 509.777344 C 530.417969 509.777344 571.761719 551.117188 571.761719 602.117188 Z M 571.761719 602.117188 " fill-opacity="1" fill-rule="nonzero"/><path fill="#fdf6f6" d="M 479.421875 559.902344 C 479.421875 576.085938 466.296875 589.207031 450.113281 589.207031 C 433.925781 589.207031 420.804688 576.085938 420.804688 559.902344 C 420.804688 543.714844 433.925781 530.59375 450.113281 530.59375 C 466.296875 530.59375 479.421875 543.714844 479.421875 559.902344 Z M 479.421875 559.902344 " fill-opacity="1" fill-rule="nonzero"/><path fill="#211f17" d="M 1036.273438 602.117188 C 1036.273438 653.117188 994.933594 694.457031 943.933594 694.457031 C 892.9375 694.457031 851.59375 653.117188 851.59375 602.117188 C 851.59375 551.117188 892.9375 509.777344 943.933594 509.777344 C 994.933594 509.777344 1036.273438 551.117188 1036.273438 602.117188 Z M 1036.273438 602.117188 " fill-opacity="1" fill-rule="nonzero"/><path fill="#fdf6f6" d="M 943.933594 559.902344 C 943.933594 576.085938 930.8125 589.207031 914.625 589.207031 C 898.441406 589.207031 885.320312 576.085938 885.320312 559.902344 C 885.320312 543.714844 898.441406 530.59375 914.625 530.59375 C 930.8125 530.59375 943.933594 543.714844 943.933594 559.902344 Z M 943.933594 559.902344 " fill-opacity="1" fill-rule="nonzero"/><path fill="#fee077" d="M 936.144531 848.410156 C 1058.914062 854.78125 1071.484375 693.261719 1071.484375 693.261719 C 1071.484375 693.261719 964.75 754.640625 797.449219 689.601562 C 800.953125 808.355469 822.605469 842.515625 936.144531 848.410156 Z M 936.144531 848.410156 " fill-opacity="1" fill-rule="nonzero"/><path fill="#fee077" d="M 949.046875 360.125 C 826.277344 353.753906 813.703125 515.273438 813.703125 515.273438 C 813.703125 515.273438 921.972656 466.421875 1089.277344 531.460938 C 1085.773438 412.710938 1062.585938 366.019531 949.046875 360.125 Z M 949.046875 360.125 " fill-opacity="1" fill-rule="nonzero"/><path fill="#211f17" d="M 452.921875 871.5 C 498.546875 919.921875 563.761719 950.292969 628.191406 963.527344 C 722.261719 982.851562 825 963.949219 901.894531 905.148438 C 917.753906 893.015625 933.945312 879.207031 946.082031 863.1875 C 956.90625 848.902344 956.464844 826.324219 941.273438 814.9375 C 926.867188 804.144531 904.585938 804.484375 893.023438 819.746094 C 890.863281 822.59375 888.449219 825.261719 886.027344 827.886719 C 883.199219 830.953125 880.203125 833.84375 877.265625 836.808594 C 874.105469 840 884.78125 829.960938 880.082031 834.152344 C 879.0625 835.058594 878.074219 835.992188 877.058594 836.898438 C 874.855469 838.871094 872.617188 840.796875 870.347656 842.691406 C 859.140625 852.027344 847.171875 860.445312 834.632812 867.894531 C 832.820312 868.96875 830.992188 870.011719 829.164062 871.058594 C 823.441406 874.339844 832.355469 869.445312 830.339844 870.417969 C 825.976562 872.523438 821.726562 874.847656 817.332031 876.898438 C 808.515625 881.015625 799.488281 884.679688 790.296875 887.882812 C 785.746094 889.46875 781.152344 890.941406 776.523438 892.296875 C 773.957031 893.050781 771.375 893.746094 768.792969 894.453125 C 767.902344 894.695312 763.945312 895.679688 768.574219 894.535156 C 773.871094 893.222656 767.089844 894.855469 765.976562 895.101562 C 754.601562 897.621094 743.078125 899.480469 731.488281 900.6875 C 718.582031 902.03125 705.679688 902.398438 692.714844 902.390625 C 698.867188 902.394531 692.539062 902.355469 689.984375 902.234375 C 686.589844 902.066406 683.199219 901.847656 679.8125 901.582031 C 672.789062 901.03125 665.78125 900.265625 658.804688 899.269531 C 646.609375 897.527344 634.507812 895.117188 622.585938 892.023438 C 620.160156 891.390625 617.75 890.714844 615.339844 890.050781 C 609.160156 888.355469 621.582031 892.054688 613.625 889.507812 C 608.039062 887.714844 602.5 885.777344 597.015625 883.6875 C 579.1875 876.898438 561.949219 868.546875 545.585938 858.742188 C 544.828125 858.289062 544.082031 857.808594 543.316406 857.367188 C 539.898438 855.390625 551.089844 862.394531 545.753906 858.875 C 544.148438 857.816406 542.523438 856.792969 540.921875 855.730469 C 537.539062 853.488281 534.203125 851.179688 530.914062 848.800781 C 525.710938 845.042969 520.628906 841.121094 515.707031 837.003906 C 512.371094 834.214844 509.097656 831.34375 505.945312 828.347656 C 503.078125 825.621094 496.796875 818.898438 508.386719 831.199219 C 501.859375 824.265625 495.863281 819.050781 486.015625 817.492188 C 477.714844 816.175781 467.207031 818.292969 460.503906 823.617188 C 447.480469 833.957031 439.789062 857.558594 452.921875 871.5 Z M 452.921875 871.5 " fill-opacity="1" fill-rule="nonzero"/></svg>